<?xml version="1.0" standalone="no"?><!DOCTYPE svg PUBLIC "-//W3C//DTD SVG 1.1//EN" "http://www.w3.org/Graphics/SVG/1.1/DTD/svg11.dtd"><svg t="1730619698564" class="icon" viewBox="0 0 1024 1024" version="1.1" xmlns="http://www.w3.org/2000/svg" p-id="1202" xmlns:xlink="http://www.w3.org/1999/xlink" width="128" height="128"><path d="M966.231 509.667c-13.277 0.002-26.552-4.912-36.681-14.736-11.411-11.069-16.392-26.017-14.939-40.468L511.806 113.825 109.035 454.429c1.452 14.454-3.529 29.404-14.945 40.475-20.255 19.643-53.095 19.643-73.351 0C7.366 481.934 0 464.689 0 446.348c0-18.343 7.365-35.588 20.739-48.559L461.737 20.112C475.111 7.143 492.892 0 511.805 0h0.006c18.914 0.001 36.694 7.146 50.067 20.116l441.027 377.705c13.373 12.969 20.739 30.212 20.74 48.553 0.002 18.346-7.365 35.594-20.744 48.566-10.126 9.817-23.399 14.727-36.67 14.727z" p-id="1203"></path><path d="M447.5 1024H135.323c-38.598 0-70-31.401-70-70V405.5h100V924H447.5v100zM890.323 1024H578.167V924h282.156V407.833h100V954c0 38.599-31.402 70-70 70z" p-id="1204"></path><path d="M608.323 1024h-30.156V924h0.156V690.5h-131V954c0-16.542-13.458-30-30-30v100c-38.598 0-70-31.401-70-70V660.5c0-38.599 31.402-70 70-70h191c38.599 0 70 31.401 70 70V954c0 38.599-31.401 70-70 70z" p-id="1205"></path></svg>