<svg xmlns="http://www.w3.org/2000/svg" viewBox="0 0 800 800"><defs><style>.cls-1,.cls-4,.cls-5{fill:#ffab0f;}.cls-1,.cls-5{stroke:#ffab0f;stroke-miterlimit:10;}.cls-1{stroke-width:60px;}.cls-2{fill:#fff;}.cls-3{fill:none;}.cls-5{stroke-width:16px;}</style></defs><g id="图层_1" data-name="图层 1"><circle class="cls-1" cx="400" cy="400" r="370"/><path class="cls-2" d="M163.84,494.49c-25,26.47-38.37,57.83-39.32,94.43-.21,8.49,1.28,15.67,7.14,22.65,23.29,27.78,49.65,52,80,71.81a341.79,341.79,0,0,0,157.82,54.87,337.79,337.79,0,0,0,111.77-8.1c76.79-18.81,139.83-59.27,190-120.27a24.76,24.76,0,0,0,5.94-16.28c.23-28.34-7-54.54-22.82-78.15-5-7.52-10.91-14.46-16.51-21.82,27.91-30.05,41.93-65.57,38.77-107s-21.68-75-54.68-100.07c-30.94-23.47-66.39-33.09-104.53-26C450.82,273,413.45,315.21,400.87,380.47,387.17,312.75,348.31,269,278.61,260.08c-58.06-7.45-105.16,16.15-134.44,66.84C109.9,386.23,120.05,442.69,163.84,494.49Z"/><path class="cls-2" d="M398.66,294.72c1.08-1.27,2-2.45,3-3.55,5.8-6.32,11.12-13.19,17.52-18.83,49-43.2,105.15-56.4,167.67-37.38,68.54,20.86,116.58,84.8,118.76,156,1.1,35.9-7.94,69.1-27.56,99.28-1.54,2.37-1.64,3.94,0,6.34a157.16,157.16,0,0,1,19.74,41.83c1.39,4.64,2.73,9.29,4.21,14.31,62.77-111.28,62.29-295.88-78.85-419C485.19,13.45,276.56,22.25,148.87,157.64c-64,67.83-95,149.34-93.82,242.59.7,53.78,14.07,104.6,39.81,153.26.54-1.87.75-2.5.9-3.13a166.1,166.1,0,0,1,22.61-52.92c1.87-2.84,2.14-4.76.17-7.8C96.13,454.92,87.6,416.8,92.63,376c5.06-41.08,23-76.16,53.66-103.93,41.81-37.8,90.92-52,146.57-42.27,34.9,6.08,64.68,22.23,89.66,47.24C388.05,282.53,393.09,288.57,398.66,294.72Z"/><path class="cls-3" d="M246.78,353A56.8,56.8,0,0,0,190,409.84c.07,31.68,25.71,57.35,57.06,57.12,31.16-.22,56.69-25.79,56.63-56.7C303.63,378.45,278.17,352.83,246.78,353Z"/><path class="cls-3" d="M339.68,511.56a53.73,53.73,0,0,0,10.83,8c15,8.31,31.3,11,48.31,11.82,8.91-1.19,17.93-1.83,26.7-3.69,13.09-2.77,25.37-7.66,34.53-18.09,7.76-8.83,7.9-19.55.57-28.74-5.93-7.42-13.9-11.91-22.6-15.08-23.18-8.43-46.77-8.78-70.47-2.57-10.57,2.77-20.39,7.3-28.22,15.26C329.33,488.63,329.38,501.74,339.68,511.56Z"/><path class="cls-3" d="M551.21,353a57,57,0,0,0,0,114c30.89,0,56.75-25.71,56.91-56.56C608.27,378.91,582.47,352.87,551.21,353Z"/><path class="cls-3" d="M431.37,658.85c-2.29-2.3-4.5-4.69-7.28-7.57,1.72-1.43,3.08-2.39,4.24-3.55,12.67-12.64,25.43-25.19,37.88-38.05a25.77,25.77,0,0,0,6.25-10.15c2.33-8.12-1.47-15.92-8.66-19.87s-15.5-2.68-21.92,3.65q-15.12,14.9-30,30c-4.19,4.25-8.19,8.7-12.45,13.24-2.06-1.92-3.29-3-4.44-4.13q-19.78-19.77-39.56-39.58A17.89,17.89,0,0,0,333.47,580c-9.73,6-11.9,18.79-4,27.22,9,9.68,18.61,18.83,27.94,28.22,5.26,5.3,10.49,10.62,15.93,16.12-1.4,1.51-2.38,2.62-3.42,3.66q-19.45,19.5-38.94,39c-5.19,5.18-7.51,11.26-5.51,18.46,3.84,13.83,20.18,17.57,30.93,7,13-12.76,25.74-25.73,38.61-38.58,1.24-1.24,2.6-2.35,4.07-3.67,1.53,1.43,2.75,2.51,3.91,3.67q19.49,19.46,38.94,38.93c5.68,5.69,12.47,7.33,19.88,4.55a17.7,17.7,0,0,0,6.27-29C455.93,683.22,443.59,671.09,431.37,658.85Z"/><path class="cls-3" d="M649.76,508.34c29.53-31.81,44.38-69.39,41-113.28s-22.95-79.4-57.87-105.89c-32.74-24.84-70.25-35-110.61-27.49-70.43,13.14-110,57.84-123.3,126.91-14.49-71.67-55.62-117.95-129.37-127.41-61.45-7.87-111.29,17.09-142.28,70.74-36.26,62.76-25.53,122.51,20.82,177.32-26.44,28-40.61,61.2-41.61,99.94-.23,9,1.36,16.58,7.55,24,24.66,29.39,52.54,55,84.68,76a361.68,361.68,0,0,0,167,58.08,357.89,357.89,0,0,0,118.28-8.58c81.26-19.9,148-62.72,201-127.27a26.14,26.14,0,0,0,6.29-17.23c.25-30-7.45-57.72-24.14-82.7C661.92,523.47,655.69,516.12,649.76,508.34ZM339.33,478.48c7.83-8,17.65-12.49,28.22-15.26,23.7-6.21,47.29-5.86,70.47,2.57,8.7,3.17,16.67,7.66,22.6,15.08,7.33,9.19,7.19,19.91-.57,28.74-9.16,10.43-21.44,15.32-34.53,18.09-8.77,1.86-17.79,2.5-26.7,3.69-17-.8-33.35-3.51-48.31-11.82a53.73,53.73,0,0,1-10.83-8C329.38,501.74,329.33,488.63,339.33,478.48ZM247.06,467c-31.35.23-57-25.44-57.06-57.12A56.8,56.8,0,0,1,246.78,353c31.39-.15,56.85,25.47,56.91,57.28C303.75,441.17,278.22,466.74,247.06,467ZM461.77,724.58c-7.41,2.78-14.2,1.14-19.88-4.55Q422.44,700.55,403,681.1c-1.16-1.16-2.38-2.24-3.91-3.67-1.47,1.32-2.83,2.43-4.07,3.67-12.87,12.85-25.64,25.82-38.61,38.58-10.75,10.56-27.09,6.82-30.93-7-2-7.2.32-13.28,5.51-18.46q19.5-19.46,38.94-39c1-1,2-2.15,3.42-3.66-5.44-5.5-10.67-10.82-15.93-16.12-9.33-9.39-18.92-18.54-27.94-28.22-7.86-8.43-5.69-21.25,4-27.22a17.89,17.89,0,0,1,21.95,2.84q19.8,19.78,39.56,39.58c1.15,1.15,2.38,2.21,4.44,4.13,4.26-4.54,8.26-9,12.45-13.24q14.92-15.09,30-30c6.42-6.33,14.73-7.61,21.92-3.65s11,11.75,8.66,19.87a25.77,25.77,0,0,1-6.25,10.15c-12.45,12.86-25.21,25.41-37.88,38.05-1.16,1.16-2.52,2.12-4.24,3.55,2.78,2.88,5,5.27,7.28,7.57,12.22,12.24,24.56,24.37,36.67,36.73A17.7,17.7,0,0,1,461.77,724.58ZM551.2,467a57,57,0,0,1,0-114c31.26-.1,57.06,25.94,56.9,57.43C608,441.25,582.09,467,551.2,467Z"/><path class="cls-3" d="M639,124.51C491.59-4,268.7,5.39,132.28,150,63.94,222.5,30.75,309.58,32.05,409.2c.76,57.46,15,111.75,42.53,163.73.58-2,.8-2.66,1-3.34A177.42,177.42,0,0,1,99.7,513.06c2-3,2.28-5.08.18-8.34-23.94-37.09-33-77.82-27.68-121.45,5.4-43.89,24.51-81.37,57.33-111,44.66-40.38,97.13-55.52,156.59-45.16,37.28,6.5,69.1,23.75,95.78,50.47,5.91,5.92,11.29,12.37,17.25,18.94,1.15-1.36,2.15-2.61,3.23-3.79,6.2-6.75,11.88-14.09,18.72-20.12,52.31-46.14,112.33-60.25,179.12-39.93,73.23,22.28,124.55,90.6,126.88,166.65,1.18,38.35-8.49,73.82-29.44,106.06-1.65,2.54-1.75,4.21,0,6.78a167.4,167.4,0,0,1,21.09,44.69c1.49,4.95,2.92,9.92,4.5,15.28C790.26,453.22,789.74,256,639,124.51Z"/><path class="cls-4" d="M494.29,409.72A56.8,56.8,0,0,1,551.21,353c31.26-.1,57.06,25.94,56.9,57.43C608,441.25,582.09,467,551.2,467A56.85,56.85,0,0,1,494.29,409.72Z"/><path class="cls-4" d="M189.94,409.72A56.8,56.8,0,0,1,246.86,353c31.25-.1,57.06,25.94,56.89,57.43-.15,30.85-26,56.56-56.9,56.56A56.84,56.84,0,0,1,189.94,409.72Z"/><line class="cls-5" x1="280" y1="637.66" x2="520" y2="637.66"/><circle class="cls-4" cx="350" cy="531.09" r="22.18"/><circle class="cls-4" cx="450" cy="531.39" r="22.18"/></g><g id="图层_2" data-name="图层 2"><path class="cls-4" d="M652.63,155.69c-48.73,0-97.48.22-146.18-.21-35-.31-65.13-5.14-85.74-16.36-27.26-14.84-21.64-35.92,12.34-47.42,34.84-11.79,103.63-9.71,129.21,4,12.28,6.6,15.4,14,8.69,21.67-10.23,11.72-54.81,17.68-82.64,11.11-7.94-1.87-12-4.69-9.45-8.28s9-5.84,19.28-5.91c5.56,0,11.14.5,16.73.67,14,.43,20.68-2.11,16.15-7.06-2.37-2.59-8.81-5.88-15.07-6.5a267,267,0,0,0-38.54-.84c-17.83.92-27.9,5.64-31,12.24-6.81,14.44,17.55,26.48,56.7,26.84,49.81.46,99.68,0,149.53,0Z"/><path class="cls-4" d="M148.66,139.68c49.47,0,99,.52,148.39,0,40.61-.42,66.21-14.11,54.43-28.63-2.76-3.41-10.4-7-18.49-8.91-14.53-3.43-31.83-3.1-47.81-1.13-6,.73-12.16,3-14.92,5.16-2.53,2-2.84,5.31.11,7,2.4,1.38,11.05,1.37,17,1.67,3.21.16,6.63-.4,10-.5,12.05-.36,21.07,2,23.46,6.08,2.31,3.92-3.93,7.67-15.12,9.07-30.11,3.76-62.21-.33-74.42-9.5-13.55-10.16-3.7-24.39,22.93-30.54A233.61,233.61,0,0,1,355.7,89c31.94,7,43.08,18.66,39.38,32.15-5.6,20.41-46.35,34.19-101.37,34.4-48.35.18-96.7.09-145,.13Z"/></g></svg>