<?xml version="1.0" standalone="no"?><!DOCTYPE svg PUBLIC "-//W3C//DTD SVG 1.1//EN" "http://www.w3.org/Graphics/SVG/1.1/DTD/svg11.dtd"><svg t="1730620468664" class="icon" viewBox="0 0 1024 1024" version="1.1" xmlns="http://www.w3.org/2000/svg" p-id="3144" xmlns:xlink="http://www.w3.org/1999/xlink" width="128" height="128"><path d="M866.5 515.7c0 47.2 37.4 85.6 84.1 87.4-12.1 58.7-35.8 113.2-68.6 161.1-34.4-30.6-87-29.4-119.9 3.5-32.5 32.5-34.1 84.2-4.7 118.6-48 31.4-102.4 53.8-160.8 64.9-4-44.6-41.4-79.6-87.1-79.6-45.2 0-82.4 34.3-87 78.3-57.2-11.8-110.4-34.5-157.3-65.8 26.9-34.3 24.5-84.1-7.1-115.7-31.7-31.7-81.6-34-115.9-6.9-31.8-47.3-54.9-101-66.8-158.7 44-4.6 78.3-41.8 78.3-87 0-45.7-35-83.1-79.6-87.1 11-58.4 33.5-112.8 64.8-160.7 34.4 29.9 86.5 28.5 119.2-4.2 33.1-33.1 34.1-86.2 3-120.6 47.8-32.7 102.3-56.4 161-68.5 1.8 46.8 40.2 84.1 87.4 84.1 47.6 0 86.4-38.1 87.4-85.5C657 84.7 712.8 108.2 761.7 141c-33.8 34.2-33.7 89.3 0.3 123.4 34 34 88.9 34.1 123.1 0.5 32.4 48.6 55.5 103.9 66.8 163.4-47.3 1-85.4 39.7-85.4 87.4zM510.7 317.1c-104.5 0-189.1 84.7-189.1 189.1 0 104.5 84.7 189.1 189.1 189.1 104.5 0 189.1-84.7 189.1-189.1 0-104.4-84.6-189.1-189.1-189.1z" fill="" p-id="3145"></path></svg>